<svg width="1392" height="150" viewBox="0 0 1392 150" fill="red" xmlns="http://www.w3.org/2000/svg" class="hidden h-auto w-full items-center justify-center pb-[25px] pt-[30px] md:flex"><path d="M81.6456 31.5534H31.8624V66.0468H72.6265V94.6782H31.8624V149.358H0.5V2.37402H81.6456V31.5534Z" fill="#CE0000"></path> <path d="M241.971 119.952H297.634V149.349H210.661V2.36523H296.112V31.5707H242.015V60.1847H287.093V88.8075H241.971V119.952Z" fill="#CE0000"></path> <path d="M528.521 119.561V149.349H497.359V122.109C497.359 105.645 492.071 100.157 477.172 100.157H464.039V149.349H432.686V2.36523H482.26C511.074 2.36523 527.729 17.4637 527.729 43.7208V58.8193C527.729 73.1263 522.833 81.7453 513.814 86.6506C524.216 92.5125 528.521 103.88 528.521 119.561ZM496.558 46.6431C496.558 35.8672 492.21 31.362 482.06 31.362H464.039V71.9261H482.077C492.262 71.9261 496.576 67.4209 496.576 56.645L496.558 46.6431Z" fill="#CE0000"></path> <path d="M759.028 119.561V149.349H727.857V122.109C727.857 105.645 722.569 100.157 707.67 100.157H694.537V149.349H663.227V2.36523H712.802C741.616 2.36523 758.271 17.4637 758.271 43.7208V58.8193C758.271 73.1263 753.374 81.7453 744.355 86.6506C754.714 92.5125 759.028 103.88 759.028 119.561ZM727.039 46.6431C727.039 35.8672 722.734 31.362 712.541 31.362H694.537V71.9261H712.575C722.769 71.9261 727.074 67.4209 727.074 56.645L727.039 46.6431Z" fill="#CE0000"></path> <path d="M987.553 56.8367V149.35H956.243V104.463H915.079V149.35H883.673V56.8367C883.673 18.8122 901.32 0 935.613 0C969.907 0 987.553 18.8122 987.553 56.8367ZM915.036 75.101H956.2V55.6626C956.2 36.459 950.112 29.3968 935.613 29.3968C920.915 29.3968 915.036 36.459 915.036 55.6626V75.101Z" fill="#CE0000"></path> <path d="M1212.56 119.561V149.349H1181.4V122.109C1181.4 105.645 1176.11 100.157 1161.21 100.157H1148.08V149.349H1116.72V2.36523H1166.29C1195.11 2.36523 1211.76 17.4637 1211.76 43.7208V58.8193C1211.76 73.1263 1206.86 81.7453 1197.84 86.6506C1208.26 92.5125 1212.56 103.88 1212.56 119.561ZM1180.62 46.6431C1180.62 35.8672 1176.27 31.362 1166.11 31.362H1148.08V71.9261H1166.11C1176.3 71.9261 1180.62 67.4209 1180.62 56.645V46.6431Z" fill="#CE0000"></path> <path d="M1358.98 149.349V2.36523H1391.16V149.349H1358.98Z" fill="#CE0000"></path></svg>